HIERARCHY
ROOT Hips
{
	OFFSET 0.000000 0.000000 0.000000
	CHANNELS 6 Xposition Yposition Zposition Zrotation Yrotation Xrotation 
	JOINT LHipJoint
	{
		OFFSET 0.000000 0.000000 0.000000
		CHANNELS 3 Zrotation Yrotation Xrotation
		JOINT LeftUpLeg
		{
			OFFSET 1.363060 -1.794630 0.839290
			CHANNELS 3 Zrotation Yrotation Xrotation
			JOINT LeftLeg
			{
				OFFSET 2.448110 -6.726130 0.000000
				CHANNELS 3 Zrotation Yrotation Xrotation
				JOINT LeftFoot
				{
					OFFSET 2.562200 -7.039590 0.000000
					CHANNELS 3 Zrotation Yrotation Xrotation
					JOINT LeftToeBase
					{
						OFFSET 0.157640 -0.433110 2.322550
						CHANNELS 3 Zrotation Yrotation Xrotation
						End Site
						{
							OFFSET 0.000000 0.000000 0.000000
						}
					}
				}
			}
		}
	}
	JOINT RHipJoint
	{
		OFFSET 0.000000 0.000000 0.000000
		CHANNELS 3 Zrotation Yrotation Xrotation
		JOINT RightUpLeg
		{
			OFFSET -1.305520 -1.794630 0.839290
			CHANNELS 3 Zrotation Yrotation Xrotation
			JOINT RightLeg
			{
				OFFSET -2.542530 -6.985550 0.000000
				CHANNELS 3 Zrotation Yrotation Xrotation
				JOINT RightFoot
				{
					OFFSET -2.568260 -7.056230 0.000000
					CHANNELS 3 Zrotation Yrotation Xrotation
					JOINT RightToeBase
					{
						OFFSET -0.164730 -0.452590 2.363150
						CHANNELS 3 Zrotation Yrotation Xrotation
						End Site
						{
							OFFSET 0.000000 0.000000 0.000000
						}
					}
				}
			}
		}
	}
	JOINT LowerBack
	{
		OFFSET 0.000000 0.000000 0.000000
		CHANNELS 3 Zrotation Yrotation Xrotation
		JOINT Spine
		{
			OFFSET 0.028270 2.035590 -0.193380
			CHANNELS 3 Zrotation Yrotation Xrotation
			JOINT Spine1
			{
				OFFSET 0.056720 2.048850 -0.042750
				CHANNELS 3 Zrotation Yrotation Xrotation
				JOINT Neck
				{
					OFFSET 0.000000 0.000000 0.000000
					CHANNELS 3 Zrotation Yrotation Xrotation
					JOINT Neck1
					{
						OFFSET -0.054170 1.746240 0.172020
						CHANNELS 3 Zrotation Yrotation Xrotation
						JOINT Head
						{
							OFFSET 0.104070 1.761360 -0.123970
							CHANNELS 3 Zrotation Yrotation Xrotation
							End Site
							{
								OFFSET 0.000000 0.000000 0.000000
							}
						}
					}
				}
				JOINT LeftShoulder
				{
					OFFSET 0.000000 0.000000 0.000000
					CHANNELS 3 Zrotation Yrotation Xrotation
					JOINT LeftArm
					{
						OFFSET 3.362410 1.200890 -0.311210
						CHANNELS 3 Zrotation Yrotation Xrotation
						JOINT LeftForeArm
						{
							OFFSET 4.983000 -0.000000 -0.000000
							CHANNELS 3 Zrotation Yrotation Xrotation
							JOINT LeftHand
							{
								OFFSET 3.483560 -0.000000 -0.000000
								CHANNELS 3 Zrotation Yrotation Xrotation
								JOINT LeftFingerBase
								{
									OFFSET 0.000000 0.000000 0.000000
									CHANNELS 3 Zrotation Yrotation Xrotation
									JOINT LeftHandIndex1
									{
										OFFSET 0.715260 -0.000000 -0.000000
										CHANNELS 3 Zrotation Yrotation Xrotation
										End Site
										{
											OFFSET 0.000000 0.000000 0.000000
										}
									}
								}
								JOINT LThumb
								{
									OFFSET 0.000000 0.000000 0.000000
									CHANNELS 3 Zrotation Yrotation Xrotation
									End Site
									{
										OFFSET 0.000000 0.000000 0.000000
									}
								}
							}
						}
					}
				}
				JOINT RightShoulder
				{
					OFFSET 0.000000 0.000000 0.000000
					CHANNELS 3 Zrotation Yrotation Xrotation
					JOINT RightArm
					{
						OFFSET -3.136600 1.374050 -0.404650
						CHANNELS 3 Zrotation Yrotation Xrotation
						JOINT RightForeArm
						{
							OFFSET -5.241900 -0.000000 -0.000000
							CHANNELS 3 Zrotation Yrotation Xrotation
							JOINT RightHand
							{
								OFFSET -3.444170 -0.000000 -0.000000
								CHANNELS 3 Zrotation Yrotation Xrotation
								JOINT RightFingerBase
								{
									OFFSET 0.000000 0.000000 0.000000
									CHANNELS 3 Zrotation Yrotation Xrotation
									JOINT RightHandIndex1
									{
										OFFSET -0.622530 -0.000000 -0.000000
										CHANNELS 3 Zrotation Yrotation Xrotation
										End Site
										{
											OFFSET 0.000000 0.000000 0.000000
										}
									}
								}
								JOINT RThumb
								{
									OFFSET 0.000000 0.000000 0.000000
									CHANNELS 3 Zrotation Yrotation Xrotation
									End Site
									{
										OFFSET 0.000000 0.000000 0.000000
									}
								}
							}
						}
					}
				}
			}
		}
	}
}
MOTION
Frames: 6
Frame Time: 0.008333
-9.110843 17.824253 -12.419918 84.435648 -84.525473 -83.545023 -4.112148 1.456977 2.781270 -15.030793 -7.651558 -7.818986 -0.953755 6.032373 18.089799 1.182652 -6.049850 2.107397 0.853500 -5.892000 -16.471300 1.403083 -0.598627 0.802005 4.311045 -0.743922 -18.079605 -6.153586 -14.814319 46.677424 -3.165714 15.410375 -2.261965 -0.635500 5.100600 -14.195700 -0.553897 2.543344 10.849163 1.023526 3.245263 0.667509 -0.403417 1.698294 -4.642431 -7.348634 9.309383 -16.692895 1.270544 14.174759 27.802312 4.104100 3.691500 17.253000 -5.854846 -2.415823 -1.483899 -78.603504 -1.792695 20.147288 19.029967 -26.878138 -5.730797 -1.515723 -2.435001 -1.335728 23.661847 19.354847 9.896400 -7.125000 0.000000 0.000000 -3.705800 53.697400 -0.793300 5.500015 0.929005 -1.466480 76.158085 -1.753092 8.275654 -17.583539 26.248546 -4.574541 0.356352 -0.303308 9.225805 -15.020942 11.226218 -3.135800 7.125000 0.000000 0.000000 8.209900 -18.178700 5.293500 
-9.107105 17.817585 -12.369001 82.642235 -84.497015 -81.794053 -4.120285 1.428201 2.766232 -15.193854 -7.458678 -8.111862 -0.888559 6.184212 18.527050 1.253670 -6.547000 1.986865 0.802300 -5.716700 -15.964700 1.418337 -0.549741 0.781066 5.493919 -1.696941 -18.780282 -6.401564 -14.987697 47.537441 -3.299299 17.303912 -2.190541 -0.541000 4.712800 -13.091100 -0.807174 2.532480 10.911001 1.001599 3.191566 0.684318 -0.289815 1.672659 -4.630697 -7.500864 9.255950 -16.648582 1.447347 14.116659 27.762722 4.208000 3.678000 17.183200 -5.853468 -2.409989 -1.478220 -78.453360 -2.000957 19.575067 19.098408 -26.961475 -5.767805 -1.508367 -2.423415 -1.264733 23.576784 19.284069 9.820900 -7.125000 0.000000 0.000000 -3.782200 53.594500 -0.800200 5.483781 0.953348 -1.464830 76.482380 -1.788704 8.250121 -17.796594 26.513897 -4.677714 0.359167 -0.294650 9.147452 -15.080079 11.123324 -3.118400 7.125000 0.000000 0.000000 8.168900 -18.288700 5.246400 
-9.101952 17.799199 -12.318287 80.437444 -84.529722 -79.622675 -4.133446 1.402734 2.729690 -15.283661 -7.571655 -8.394882 -0.800976 6.408644 19.155408 1.279751 -6.702402 1.661307 0.806500 -5.731200 -16.006600 1.439980 -0.507005 0.772620 6.810724 -2.702356 -19.418521 -6.593815 -15.104442 48.168201 -3.393503 18.787131 -2.414388 -0.652500 5.166800 -14.385000 -0.968346 2.520846 10.986447 0.986066 3.150699 0.691129 -0.221314 1.653172 -4.641342 -7.674911 9.161984 -16.616161 1.634271 14.006643 27.662020 4.314900 3.649900 17.084000 -5.851293 -2.395287 -1.476928 -78.321031 -2.133092 19.228019 19.169783 -27.051371 -5.806454 -1.522556 -2.439897 -1.354397 23.804360 19.503710 10.027000 -7.125000 0.000000 0.000000 -3.593700 53.888100 -0.786000 5.462884 0.979155 -1.465251 76.738594 -1.950651 8.679896 -18.049024 26.822895 -4.797909 0.383079 -0.284288 8.388403 -15.511691 11.062217 -3.194000 7.125000 0.000000 0.000000 7.853600 -18.331400 5.032500 
-9.098821 17.784550 -12.266562 78.649614 -84.641644 -77.815943 -4.150356 1.379849 2.689411 -15.312833 -7.790828 -8.633469 -0.726087 6.604927 19.701032 1.268364 -6.588602 1.347315 0.868800 -5.943000 -16.619100 1.467737 -0.467790 0.765010 8.251411 -3.573862 -20.013006 -6.758022 -15.203823 48.714268 -3.446056 19.544281 -2.834365 -0.871100 5.950700 -16.641300 -1.021759 2.509753 10.963176 0.981732 3.128187 0.705591 -0.187912 1.641128 -4.580969 -7.777533 9.106562 -16.550136 1.703554 13.939617 27.539499 4.354900 3.636900 16.972700 -5.847645 -2.389973 -1.469878 -78.141481 -2.308509 18.966770 19.215583 -27.111568 -5.833243 -1.507604 -2.466845 -1.561744 23.710757 19.763186 10.102000 -7.125000 0.000000 0.000000 -3.780400 54.166500 -0.852600 5.448039 0.993827 -1.464371 76.944863 -2.034532 9.172485 -18.241040 27.053074 -4.887264 0.415211 -0.276986 7.390295 -16.104083 11.082162 -3.329000 7.125000 0.000000 0.000000 7.419200 -18.275000 4.758600 
-9.098113 17.781418 -12.218373 76.997056 -84.838630 -76.176854 -4.163909 1.365014 2.648316 -15.231426 -8.122535 -8.798161 -0.642509 6.817041 20.292747 1.253242 -6.447275 1.073040 0.840300 -5.847400 -16.342400 1.496545 -0.434618 0.764354 9.760987 -4.173777 -20.359122 -6.852952 -15.255629 49.084018 -3.432916 19.806669 -2.864665 -0.889000 6.010100 -16.813800 -1.040609 2.532684 10.960344 1.000556 3.155917 0.728006 -0.136061 1.653063 -4.521468 -7.703865 9.093251 -16.527640 1.654682 13.895586 27.518692 4.312000 3.627600 16.963800 -5.839143 -2.405644 -1.455930 -77.927906 -2.570501 18.726743 19.207259 -27.102401 -5.828438 -1.489631 -2.489649 -1.820609 23.554985 19.951371 10.115200 -7.125000 0.000000 0.000000 -4.012400 54.350500 -0.923100 5.447779 0.998008 -1.466664 77.230829 -2.058994 9.106397 -18.409265 27.257062 -4.969359 0.423878 -0.267390 7.228528 -16.280328 10.932593 -3.321000 7.125000 0.000000 0.000000 7.291100 -18.426700 4.650400 
-9.095285 17.778488 -12.170184 74.533140 -85.034304 -73.662134 -4.185568 1.348275 2.604696 -15.095088 -8.465814 -9.051801 -0.560036 7.024249 20.865364 1.248663 -6.346571 0.743331 0.841300 -5.850600 -16.351700 1.514505 -0.399447 0.767132 11.249986 -4.878788 -20.775049 -6.897392 -15.267110 49.294072 -3.392725 19.885401 -2.662469 -0.841300 5.850600 -16.351600 -1.015177 2.507675 10.945612 1.031638 3.127450 0.713352 -0.080083 1.638807 -4.524421 -7.759745 9.106688 -16.527041 1.693779 13.929947 27.514707 4.347300 3.637000 16.947400 -5.839910 -2.415173 -1.447686 -77.822392 -2.803859 18.117624 19.125860 -26.996687 -5.775622 -1.499767 -2.476384 -1.788709 23.577107 19.837624 10.075200 -7.125000 0.000000 0.000000 -3.941600 54.221200 -0.894300 5.447802 1.010166 -1.471060 77.434668 -2.106382 9.066080 -18.534185 27.409631 -5.031898 0.425435 -0.265255 7.198596 -16.335865 10.936456 -3.333400 7.125000 0.000000 0.000000 7.251200 -18.421100 4.625500 
